<?xml version="1.0" standalone="no"?>
<!DOCTYPE svg PUBLIC "-//W3C//DTD SVG 20010904//EN"
 "http://www.w3.org/TR/2001/REC-SVG-20010904/DTD/svg10.dtd">
<svg version="1.0" xmlns="http://www.w3.org/2000/svg"
 width="1280.000000pt" height="640.000000pt" viewBox="0 0 1280.000000 640.000000"
 preserveAspectRatio="xMidYMid meet">
<g transform="translate(0.000000,640.000000) scale(0.100000,-0.100000)"
fill="#000000" stroke="none">
<path d="M2300 4960 c-304 -20 -518 -111 -771 -325 -253 -216 -414 -486 -474
-796 -21 -112 -21 -344 0 -464 104 -583 593 -1055 1178 -1134 178 -25 402 -10
592 39 139 36 225 74 345 155 201 135 361 329 455 555 68 162 106 458 83 635
l-13 100 -80 3 c-44 2 -329 1 -632 -3 l-553 -7 0 -183 0 -184 53 -5 c28 -3
196 -7 373 -10 346 -6 419 -14 435 -50 21 -45 -74 -267 -158 -371 -174 -215
-467 -316 -823 -285 -137 11 -206 32 -330 96 -235 121 -406 328 -486 590 -26
83 -28 101 -28 274 0 160 3 195 22 263 79 282 263 507 522 637 104 53 163 68
298 81 292 26 462 -16 701 -175 81 -53 85 -55 112 -41 71 37 219 201 219 243
0 61 -308 256 -499 316 -133 42 -338 59 -541 46z"/>
<path d="M9574 4857 c-2 -7 -6 -585 -7 -1285 -2 -1037 0 -1273 11 -1284 17
-16 368 -16 384 0 11 11 13 2555 2 2573 -3 5 -91 9 -195 9 -148 0 -191 -3
-195 -13z"/>
<path d="M4530 3986 c-293 -62 -522 -244 -646 -511 -43 -94 -54 -165 -54 -366
0 -204 10 -259 67 -376 89 -180 243 -336 416 -420 151 -74 170 -78 382 -78
170 0 198 3 265 23 97 30 245 108 321 169 123 98 255 299 294 448 18 70 21
392 4 465 -13 58 -77 194 -126 267 -116 175 -301 307 -513 365 -97 26 -315 34
-410 14z m346 -387 c323 -120 416 -599 167 -860 -175 -183 -488 -185 -670 -3
-209 209 -181 638 52 799 123 85 318 113 451 64z"/>
<path d="M6465 3990 c-122 -20 -246 -65 -343 -127 -78 -50 -210 -183 -266
-270 -153 -238 -175 -582 -55 -851 113 -251 346 -444 601 -496 110 -23 336
-21 454 3 153 32 243 82 383 216 132 127 209 248 253 402 20 67 23 100 22 238
0 144 -3 169 -27 248 -98 319 -320 539 -622 617 -92 24 -304 35 -400 20z m281
-384 c78 -21 148 -63 208 -126 93 -98 135 -213 136 -372 0 -156 -40 -255 -146
-360 -88 -87 -156 -123 -261 -138 -153 -22 -274 17 -373 120 -200 207 -215
528 -33 730 121 135 301 191 469 146z"/>
<path d="M8306 3978 c-61 -11 -176 -63 -252 -114 -177 -118 -316 -307 -380
-519 -24 -79 -27 -108 -28 -230 0 -116 3 -153 22 -218 93 -324 342 -575 647
-652 86 -22 249 -25 325 -6 69 17 178 66 253 114 63 40 77 45 77 22 0 -48 -34
-242 -50 -291 -75 -217 -266 -320 -511 -274 -119 22 -173 61 -330 240 -43 48
-46 48 -176 -7 -109 -46 -173 -88 -173 -112 0 -44 158 -245 248 -316 69 -55
235 -139 317 -160 133 -35 393 -14 546 44 164 62 342 233 415 396 62 140 81
302 90 750 6 334 -10 1211 -24 1260 l-9 30 -162 0 c-178 0 -181 -1 -181 -62 0
-43 -20 -43 -80 -2 -78 52 -160 90 -229 105 -74 15 -279 17 -355 2z m384 -376
c120 -47 218 -156 261 -290 30 -94 37 -255 15 -342 -57 -223 -197 -353 -396
-366 -158 -11 -273 27 -369 123 -109 110 -141 194 -141 378 0 181 40 294 139
388 65 62 136 106 200 124 69 19 223 11 291 -15z"/>
<path d="M10756 3979 c-123 -25 -278 -121 -393 -242 -452 -479 -234 -1297 394
-1479 68 -20 100 -23 253 -22 161 0 182 2 265 28 50 15 119 45 155 66 124 74
310 238 310 274 0 8 -19 31 -42 51 -55 47 -230 165 -244 165 -6 0 -40 -28 -75
-63 -112 -110 -261 -165 -426 -154 -106 6 -166 35 -257 120 -87 82 -87 96 2
138 141 67 227 105 552 246 503 217 510 221 510 253 0 14 -20 65 -44 113 -128
250 -309 428 -496 489 -54 17 -95 21 -240 24 -96 2 -197 -1 -224 -7z m389
-384 c39 -18 86 -50 105 -70 34 -35 34 -37 16 -51 -20 -14 -350 -156 -555
-239 -62 -25 -124 -45 -138 -45 -25 0 -25 1 -21 59 6 82 55 179 128 250 141
139 307 174 465 96z"/>
</g>
</svg>
