<svg xmlns="http://www.w3.org/2000/svg" height="800" width="1200" id="svg6843" version="1.1" viewBox="-16.96641 -5.5298 147.04222 33.1788"><g transform="translate(298.1949 -232.5985)" id="layer1"><g transform="translate(.2646 -.2646)" id="g7392"><path class="st0" d="M-241.971 247.23l-2.9632-1.7463-.2117.344c-.6615 1.0583-1.5875 1.5875-2.7252 1.5875-1.958 0-3.4131-1.4817-3.4131-3.4131 0-1.958 1.4816-3.4132 3.413-3.4132 1.1642 0 2.011.5028 2.7253 1.5875l.2117.344 2.9633-1.7462-.2646-.3705c-1.4287-2.0637-3.2544-3.0427-5.662-3.0427-4.5244 0-6.9586 3.4396-6.9586 6.6675 0 3.228 2.4341 6.6675 6.9585 6.6675 2.3019 0 4.4715-1.1641 5.6621-3.0691z" id="path6847" fill="#c01818" stroke-width=".2646"/><path class="st0" d="M-242.1297 250.6431h4.0746l1.2171-3.0162h6.1119l1.217 3.0162h4.1011l-7.3025-17.6477h-3.6512l.979 2.3548-6.747 15.293m8.3873-10.6893l1.6405 4.154h-3.3338z" id="path6849" fill="#c01818" stroke-width=".2646"/><path class="st0" d="M-223.7147 250.6696h3.572v-7.9375h2.3282v-3.3338h-2.3283v-1.561c0-.688.4498-1.4023 1.2965-1.4023.4498 0 .7408.0794 1.0054.1852l.3969.1587 1.4816-3.2543-.3968-.1323c-.6615-.2646-1.5875-.3704-2.249-.3704-1.614 0-2.9633.5291-3.863 1.5345-.7937.8732-1.2435 2.0903-1.2435 3.4396v1.4288h-1.5875v3.3337h1.5875z" id="path6851" fill="#c01818" stroke-width=".2646"/><path class="st0" id="polygon6853" transform="translate(-298.4595 232.8631) scale(.26458)" fill="#c01818" d="M159 67.2V.1l-28.9 21.8-29-21.8v67l14.7.1V28.8l14.3 10.6 14.2-10.6v38.4z"/><path class="st0" d="M-209.7447 237.361c-4.4979 0-6.932 3.4132-6.932 6.641 0 3.228 2.4341 6.6411 6.932 6.6411 2.0638-.0265 3.9952-.9525 5.5034-2.6723l-2.9104-1.5875c-.7409.7673-1.667 1.1642-2.6723 1.1642-1.4817 0-2.7782-.979-3.1221-2.2754h9.7366v-.8732c.0265-4.8418-3.81-7.0114-6.5352-7.0379zm-3.122 5.0271c.4762-1.217 1.4816-1.905 2.778-1.905 1.323 0 2.3549.688 2.884 1.9315z" id="path6855" fill="#c01818" stroke-width=".2646"/><path class="st0" d="M-195.1132 237.3875c-4.498 0-6.932 3.4131-6.932 6.641 0 3.228 2.434 6.641 6.932 6.641 2.0638-.0264 3.9952-.9524 5.5033-2.6722l-2.9104-1.5875c-.7408.7673-1.6669 1.1641-2.6723 1.1641-1.4816 0-2.7781-.979-3.122-2.2754h9.7366v-.8731c.0265-4.8419-3.81-7.038-6.5352-7.038zm-3.122 5.0006c.4762-1.217 1.4816-1.9314 2.778-1.905 1.323 0 2.3548.688 2.884 1.9315z" id="path6857" fill="#c01818" stroke-width=".2646"/><path class="st0" d="M-189.0278 236.779h1.5081v.291h-.6085v1.5875h-.3175V237.07h-.582z" id="path6859" fill="#c01818" stroke-width=".2646"/><path class="st0" d="M-187.2815 236.779h.4498l.5291 1.4552.5027-1.4553h.4498v1.8786h-.3175v-1.4552l-.5291 1.4552h-.2646l-.5292-1.4552v1.4552h-.3175v-1.8786z" id="path6861" fill="#c01818" stroke-width=".2646"/><path class="st0" id="polygon6863" transform="translate(-298.4595 232.8631) scale(.26458)" fill="#c01818" d="M0 66.8l36.3 16.8V67.2l-21.4-9.9v-34l21.4 9.9V16.8L0 0z"/><path id="polygon6865" transform="translate(-298.4595 232.8631) scale(.26458)" fill="#75160d" d="M72.7 66.8L36.3 83.6V67.2l21.5-9.9v-34l-21.5 9.9V16.8L72.7 0z"/></g></g><style type="text/css" id="style6845">.st0{fill:#c01818}</style></svg>