<svg width="1" height="1" viewBox="0 0 1 1" fill="none" xmlns="http://www.w3.org/2000/svg">
<path d="M0.0545871 0.0607278C0.122954 0.0632788 0.0630805 -0.00151715 0.123465 -0.00151708H0.219383H0.951526C0.951526 -0.00151708 0.973975 -0.00406815 0.988771 0.00613595C0.999485 0.0158298 0.999505 0.0312068 0.999485 0.0469523C0.999311 0.179146 0.998464 0.780848 0.998464 0.868381C0.998464 0.910218 0.997444 0.913789 0.949995 0.913789H0.764281C0.717342 0.913789 0.772444 0.997463 0.706628 0.997463L0.0397912 0.996503C0.0122402 0.996459 0.0086688 0.986748 0.0086688 0.986748C0.0086688 0.986748 0.00152588 0.977564 0.00152588 0.962768V0.100014C0.00152593 0.0484829 0.0163219 0.0607278 0.0545871 0.0607278Z" fill="black"/>
</svg>
